<svg width="16" height="16" viewBox="0 0 16 16" fill="none" xmlns="http://www.w3.org/2000/svg">
<rect width="16" height="16" fill="#000E15"/>
<path d="M7.1264 6.55248C7.1264 6.55248 7.06563 6.51673 6.94408 6.44523C6.82253 6.37373 6.66166 6.29508 6.46147 6.20929C6.26128 6.11634 6.04321 6.03412 5.80726 5.96262C5.57132 5.89112 5.33895 5.85537 5.11016 5.85537C4.93141 5.85537 4.78484 5.88397 4.67045 5.94117C4.55605 5.99837 4.49885 6.09489 4.49885 6.23073C4.49885 6.35943 4.55605 6.4631 4.67045 6.54175C4.78484 6.6204 4.94571 6.6919 5.15306 6.75624C5.36755 6.82059 5.62137 6.89924 5.91451 6.99219C6.3864 7.13518 6.79394 7.29963 7.13713 7.48552C7.48032 7.67142 7.74486 7.91094 7.93075 8.20408C8.11665 8.49007 8.20959 8.87258 8.20959 9.35162C8.20959 9.80921 8.12737 10.1953 7.96293 10.5099C7.79848 10.8173 7.57684 11.064 7.298 11.2499C7.01915 11.4358 6.70814 11.5716 6.36495 11.6574C6.02176 11.7361 5.67142 11.7754 5.31393 11.7754C4.94929 11.7754 4.56678 11.7396 4.16639 11.6682C3.77315 11.5895 3.39063 11.4858 3.01885 11.3571C2.64706 11.2213 2.30744 11.064 2 10.8852L2.90087 9.05133C2.90087 9.05133 2.97237 9.09423 3.11537 9.18002C3.25836 9.26582 3.44783 9.36234 3.68378 9.46959C3.91972 9.57684 4.18069 9.67336 4.46668 9.75916C4.75982 9.84495 5.05296 9.88785 5.3461 9.88785C5.5749 9.88785 5.73219 9.85925 5.81799 9.80206C5.91094 9.73771 5.95741 9.65548 5.95741 9.55539C5.95741 9.40524 5.87876 9.29085 5.72147 9.2122C5.56417 9.1264 5.35683 9.04775 5.09943 8.97626C4.84919 8.89761 4.57035 8.80823 4.26291 8.70814C3.81962 8.55799 3.45498 8.38997 3.16899 8.20408C2.883 8.01103 2.67208 7.78581 2.53623 7.52842C2.40039 7.26388 2.33247 6.94571 2.33247 6.57393C2.33247 6.00909 2.46474 5.53721 2.72928 5.15827C2.99382 4.77933 3.34059 4.49334 3.76957 4.30029C4.20571 4.1001 4.67402 4 5.17451 4C5.5463 4 5.90379 4.04647 6.24698 4.13942C6.59732 4.22522 6.92263 4.33247 7.22292 4.46116C7.53036 4.58986 7.79848 4.7114 8.02727 4.8258L7.1264 6.55248Z" fill="white"/>
<path d="M8.77686 11.6789V4.06435H13.9998V5.88754H10.8682V7.15306H13.4206V8.84756H10.8682V11.6789H8.77686Z" fill="#91E300"/>
</svg>
