<svg fill="none" height="16" viewBox="0 0 16 16" width="16" xmlns="http://www.w3.org/2000/svg"><path d="m0 0h16v16h-16z" fill="#000e15"/><path d="m7.1264 6.55248s-.06077-.03575-.18232-.10725-.28242-.15015-.48261-.23594c-.20019-.09295-.41826-.17517-.65421-.24667-.23594-.0715-.46831-.10725-.6971-.10725-.17875 0-.32532.0286-.43971.0858-.1144.0572-.1716.15372-.1716.28956 0 .1287.0572.23237.1716.31102.11439.07865.27526.15015.48261.21449.21449.06435.46831.143.76145.23595.47189.14299.87943.30744 1.22262.49333.34319.1859.60773.42542.79362.71856.1859.28599.27884.6685.27884 1.14754 0 .45759-.08222.84368-.24666 1.15828-.16445.3074-.38609.5541-.66493.74-.27885.1859-.58986.3217-.93305.4075-.34319.0787-.69353.118-1.05102.118-.36464 0-.74715-.0358-1.14754-.1072-.39324-.0787-.77576-.1824-1.14754-.3111-.37179-.1358-.71141-.2931-1.01885-.4719l.90087-1.83387s.0715.0429.2145.12869c.14299.0858.33246.18232.56841.28957.23594.10725.49691.20377.7829.28957.29314.08579.58628.12869.87942.12869.2288 0 .38609-.0286.47189-.08579.09295-.06435.13942-.14658.13942-.24667 0-.15015-.07865-.26454-.23594-.34319-.1573-.0858-.36464-.16445-.62204-.23594-.25024-.07865-.52908-.16803-.83652-.26812-.44329-.15015-.80793-.31817-1.09392-.50406-.28599-.19305-.49691-.41827-.63276-.67566-.13584-.26454-.20376-.58271-.20376-.95449 0-.56484.13227-1.03672.39681-1.41566s.61131-.66493 1.04029-.85798c.43614-.20019.90445-.30029 1.40494-.30029.37179 0 .72928.04647 1.07247.13942.35034.0858.67565.19305.97594.32174.30744.1287.57556.25024.80435.36464z" fill="#fff"/><path d="m8.77686 11.6789v-7.61455h5.22294v1.82319h-3.1316v1.26552h2.5524v1.6945h-2.5524v2.83134z" fill="#91e300"/></svg>